<?xml version="1.0" encoding="UTF-8"?>
<svg id="Layer_2" data-name="Layer 2" xmlns="http://www.w3.org/2000/svg" viewBox="0 0 148.82 28.32">
  <defs>
    <style>
      .cls-1 {
        fill: #e6e6e6;
      }
    </style>
  </defs>
  <g id="Layer_1-2" data-name="Layer 1">
    <g id="Layer_1-3" data-name="Layer_1">
      <g id="_1974537270816" data-name=" 1974537270816">
        <g>
          <g>
            <path class="cls-1" d="M3.46,12.29H25.15s0,3.29,0,3.29H3.46s0-3.29,0-3.29Zm.34,11.9H27.3s0,3.29,0,3.29H0s0-26.57,0-26.57H26.74s0,3.29,0,3.29H3.8s0,19.94,0,19.94v.06Zm19.83,3.29V.91s3.8,0,3.8,0V24.19h14.39s0,3.29,0,3.29H23.62Z"/>
            <polygon class="cls-1" points="41.81 12.29 41.81 27.47 38.52 27.47 38.52 12.29 41.81 12.29"/>
            <polygon class="cls-1" points="41.81 15.58 25.66 15.58 25.66 12.29 41.81 12.29 41.81 15.58"/>
          </g>
          <path class="cls-1" d="M51.04,4.82h9.12s0,1.36,0,1.36h-9.12s0-1.36,0-1.36Zm.17,4.99h9.86s0,1.36,0,1.36h-11.44s0-11.16,0-11.16h11.22s0,1.36,0,1.36h-9.63V9.74s0,.06,0,.06Zm20.62,1.36V0s1.3,0,1.3,0l7.36,9.18h-.68s0-9.18,0-9.18h1.59s0,11.16,0,11.16h-1.3s-7.36-9.18-7.36-9.18h.68s0,9.18,0,9.18h-1.59Zm24.47,0V0s1.3,0,1.3,0l7.36,9.18h-.68s0-9.18,0-9.18h1.59s0,11.16,0,11.16h-1.3s-7.36-9.18-7.36-9.18h.68s0,9.18,0,9.18h-1.59Zm22.77,0L124.12,0h1.59s5.04,11.16,5.04,11.16h-1.7S124.51,.91,124.51,.91h.62s-4.53,10.25-4.53,10.25h-1.64s.11,0,.11,0Zm2.15-2.78l.45-1.3h6.29s.45,1.3,.45,1.3h-7.19ZM49.91,28.21v-11.16s1.59,0,1.59,0v9.74h6.06s0,1.36,0,1.36h-7.65v.06Zm22.43-6.34h8.67s0,1.36,0,1.36h-8.67s0-1.36,0-1.36Zm.17,4.99h9.46s0,1.36,0,1.36h-11.05s0-11.16,0-11.16h10.82s0,1.36,0,1.36h-9.23v8.38s0,.06,0,.06Zm18.92,1.36l5.04-11.16h1.59s5.04,11.16,5.04,11.16h-1.7s-4.53-10.25-4.53-10.25h.62s-4.53,10.25-4.53,10.25h-1.64s.11,0,.11,0Zm2.15-2.78l.45-1.3h6.29s.45,1.3,.45,1.3h-7.19Zm27.08,2.89c-1.47,0-2.61-.4-3.46-1.25s-1.25-2.04-1.25-3.68v-6.34s1.59,0,1.59,0v6.29c0,1.25,.28,2.15,.79,2.72,.57,.57,1.3,.85,2.32,.85s1.81-.28,2.32-.85c.57-.57,.79-1.47,.79-2.72v-6.29s1.53,0,1.53,0v6.34c0,1.64-.4,2.83-1.25,3.68s-1.98,1.25-3.46,1.25h.06Zm17.84-.11l4.65-6.34v1.25s-4.36-6.06-4.36-6.06h1.81s3.46,4.76,3.46,4.76h-.74s3.46-4.76,3.46-4.76h1.76s-4.36,5.95-4.36,5.95v-1.13s4.65,6.34,4.65,6.34h-1.81s-3.68-5.1-3.68-5.1h.68s-3.63,5.1-3.63,5.1h-1.81s-.06,0-.06,0Z"/>
        </g>
      </g>
    </g>
  </g>
</svg>