<?xml version="1.0" encoding="UTF-8"?>
<svg id="Layer_2" data-name="Layer 2" xmlns="http://www.w3.org/2000/svg" viewBox="0 0 116.5 31.45">
  <defs>
    <style>
      .cls-1 {
        fill: #e6e6e6;
      }
    </style>
  </defs>
  <g id="Layer_1-2" data-name="Layer 1">
    <g id="Layer_1-3" data-name="Layer_1">
      <g id="_1974277133488" data-name=" 1974277133488">
        <path class="cls-1" d="M48.21,26.52c-1.61,0-3.01-.31-4.23-.98s-2.17-1.57-2.83-2.73-1.01-2.48-1.01-3.95c0-1.5,.31-2.8,.98-3.95,.66-1.15,1.54-2.06,2.69-2.69,1.15-.66,2.45-.98,3.88-.98,1.47,0,2.73,.31,3.85,.98,1.12,.63,1.99,1.54,2.62,2.69,.63,1.15,.94,2.52,.94,4.06v.38c0,.14-.03,.28-.03,.42h-12.77s0-1.96,0-1.96h11.37s-1.12,.66-1.12,.66c.03-.98-.17-1.82-.59-2.59s-.98-1.33-1.71-1.78c-.73-.42-1.57-.63-2.52-.63s-1.78,.21-2.52,.63-1.33,1.01-1.71,1.78c-.42,.77-.63,1.64-.63,2.62v.45c0,1.01,.24,1.89,.7,2.69,.45,.77,1.12,1.4,1.92,1.82,.84,.42,1.78,.66,2.87,.66,.87,0,1.68-.14,2.41-.45,.73-.31,1.36-.77,1.92-1.36l1.5,1.75c-.66,.8-1.54,1.4-2.52,1.82-1.01,.42-2.13,.63-3.39,.63h-.07Zm15.81,0c-1.5,0-2.69-.42-3.5-1.22-.84-.8-1.26-1.96-1.26-3.5V8.01s2.73,0,2.73,0v13.64c0,.8,.21,1.43,.59,1.85,.42,.42,.98,.66,1.75,.66,.84,0,1.57-.24,2.13-.7l.84,1.96c-.42,.35-.91,.63-1.5,.8-.56,.17-1.19,.24-1.78,.24v.03Zm-7.31-12.94v-2.24s9.59,0,9.59,0v2.24s-9.59,0-9.59,0Zm13.89,12.77V11.33s2.73,0,2.73,0v15.01s-2.73,0-2.73,0Zm1.36-17.91c-.52,0-.98-.17-1.33-.52s-.52-.77-.52-1.26c0-.52,.17-.94,.52-1.26,.35-.35,.8-.52,1.33-.52s.98,.17,1.33,.49,.52,.73,.52,1.22c0,.52-.17,.94-.52,1.29s-.77,.52-1.33,.52v.03Zm10.5,17.91l-6.58-15.01h2.83s5.84,13.61,5.84,13.61h-1.36s5.95-13.61,5.95-13.61h2.66s-6.58,15.01-6.58,15.01h-2.76Zm11.89,0V11.33s2.73,0,2.73,0v15.01s-2.73,0-2.73,0Zm1.36-17.91c-.52,0-.98-.17-1.33-.52s-.52-.77-.52-1.26c0-.52,.17-.94,.52-1.26,.35-.35,.8-.52,1.33-.52s.98,.17,1.33,.49,.52,.73,.52,1.22c0,.52-.17,.94-.52,1.29s-.77,.52-1.33,.52v.03Zm12.98,18.09c-1.5,0-2.87-.31-4.02-.98-1.15-.66-2.1-1.57-2.76-2.73-.66-1.15-1.01-2.48-1.01-3.95s.35-2.8,1.01-3.95c.66-1.15,1.61-2.06,2.76-2.69,1.15-.66,2.52-.98,4.02-.98s2.83,.31,4.02,.98c1.19,.66,2.1,1.54,2.76,2.69s1.01,2.48,1.01,3.99c0,1.5-.35,2.8-1.01,3.95s-1.61,2.06-2.76,2.73c-1.19,.66-2.52,.98-4.02,.98v-.03Zm0-2.38c.98,0,1.82-.21,2.59-.66,.77-.42,1.36-1.05,1.78-1.85s.66-1.75,.66-2.8c0-1.08-.21-1.99-.66-2.8-.42-.77-1.05-1.4-1.78-1.82-.77-.42-1.64-.66-2.59-.66-.98,0-1.82,.21-2.59,.66-.77,.42-1.36,1.05-1.82,1.82s-.66,1.71-.66,2.8,.21,1.99,.66,2.8c.45,.8,1.05,1.43,1.82,1.85s1.61,.66,2.59,.66Z"/>
        <path class="cls-1" d="M30.68,0h.42c0,10.5,0,20.96,0,31.45-8.19,0-16.37,0-24.56,0,0-2.27,0-4.3,0-6.58-2.17,0-4.37,0-6.54,0C0,16.58,0,8.29,0,0,10.25,0,20.47,0,30.72,0h-.03ZM10.64,24.87v2.48H26.97c0-4.93,0-9.87,0-14.8V4.13H4.09V20.5h2.41c0-5,0-8.89,0-13.89,6.23,0,11.82,0,18.05,0,0,6.09,0,12.17,0,18.26H10.6s.03,0,.03,0Zm9.87-14.55H10.64v10.18h9.87V10.32Z"/>
      </g>
    </g>
  </g>
</svg>