<?xml version="1.0" encoding="UTF-8"?>
<svg id="Layer_2" data-name="Layer 2" xmlns="http://www.w3.org/2000/svg" viewBox="0 0 104.01 37.67">
  <defs>
    <style>
      .cls-1 {
        fill: #e6e6e6;
      }
    </style>
  </defs>
  <g id="Layer_1-2" data-name="Layer 1">
    <g id="Layer_1-3" data-name="Layer_1">
      <g id="_1974537265888" data-name=" 1974537265888">
        <path class="cls-1" d="M19.06,37.67c-2.66,0-5.16-.48-7.47-1.44-1.44-.59-2.77-1.35-3.99-2.24,.68-1.48,1.61-2.79,2.76-3.94l.72-.67c.91,.68,1.89,1.26,2.94,1.72,1.63,.7,3.35,1.05,5.18,1.05,1.37,0,2.66-.2,3.88-.61s2.31-.98,3.25-1.7c.41-.31,.78-.67,1.11-1.02,.72,.65,1.29,1.37,1.74,2.16,.48,.89,.74,1.83,.78,2.81-.22,.2-.46,.39-.7,.57h-9.74v3.29h-.48s.04,0,.04,0Zm10.34-14.18l.55,.41c.5,.37,.96,.78,1.42,1.22,1.04,1,1.92,2.13,2.64,3.4,.07-.17,.15-.33,.22-.48,.83-1.98,1.26-4.18,1.26-6.6,0-.31,0-.65-.02-.98s-.04-.68-.07-1.05-.09-.74-.17-1.13H18.95v2.33c.26-.02,.54-.02,.8-.02,2.31,0,4.46,.39,6.43,1.18,1.16,.46,2.24,1.04,3.22,1.72ZM3.33,29.6c-.74-1.05-1.37-2.2-1.89-3.44C.48,23.87,0,21.39,0,18.73c0-2.63,.48-5.09,1.44-7.36,.96-2.27,2.31-4.27,4.05-5.97s3.75-3.01,6.07-3.98C13.87,.48,16.36,0,19.03,0c1.85,0,3.68,.26,5.44,.8,1.78,.52,3.37,1.26,4.81,2.2,1.44,.94,2.61,2.03,3.51,3.25l-3.68,3.85c-1.57-1.5-3.22-2.64-4.92-3.42s-3.42-1.16-5.18-1.16c-1.89,0-3.64,.33-5.23,1-1.59,.67-3,1.59-4.2,2.79-1.2,1.18-2.14,2.59-2.81,4.18s-1,3.35-1,5.23c0,1.83,.35,3.55,1.05,5.18,.15,.37,.33,.72,.52,1.05-.41,.33-.81,.7-1.18,1.07-1.09,1.07-2.03,2.26-2.83,3.57v.02Z"/>
        <path class="cls-1" d="M45.84,18.47c-.91,0-1.76-.17-2.55-.5s-1.5-.8-2.09-1.39-1.07-1.28-1.39-2.07c-.33-.8-.5-1.63-.5-2.55s.17-1.74,.5-2.51,.8-1.46,1.39-2.05c.59-.57,1.29-1.04,2.07-1.37,.8-.33,1.65-.48,2.55-.48,.63,0,1.26,.09,1.87,.28,.61,.18,1.15,.43,1.65,.76s.89,.7,1.2,1.11l-1.26,1.31c-.54-.52-1.11-.91-1.68-1.16s-1.16-.39-1.78-.39c-.65,0-1.24,.11-1.79,.35-.55,.22-1.04,.55-1.44,.96-.41,.41-.74,.89-.96,1.42-.22,.55-.35,1.15-.35,1.79s.13,1.22,.35,1.78c.24,.55,.57,1.05,1,1.46,.43,.43,.92,.76,1.48,1s1.15,.35,1.78,.35c.46,0,.91-.07,1.33-.2s.8-.33,1.11-.59c.33-.26,.57-.54,.76-.87s.28-.68,.28-1.05v-.35s.28,.26,.28,.26h-3.85s0-1.92,0-1.92h5.58c.02,.13,.04,.26,.06,.39s.02,.24,.02,.35v.33c0,.83-.15,1.59-.43,2.26-.3,.68-.68,1.26-1.2,1.76s-1.11,.87-1.78,1.15c-.68,.28-1.41,.41-2.2,.41Zm7.69-.18V8.84s1.87,0,1.87,0v2.98s-.18-.72-.18-.72c.13-.46,.35-.87,.68-1.24,.31-.37,.68-.67,1.09-.89s.85-.33,1.29-.33c.2,0,.41,.02,.59,.06s.33,.07,.44,.13l-.48,2.02c-.15-.06-.3-.11-.48-.15-.17-.04-.35-.06-.52-.06-.33,0-.63,.06-.92,.18s-.55,.3-.78,.52-.41,.48-.54,.78-.2,.61-.2,.96v5.21s-1.87,0-1.87,0Zm11.11,.18c-.92,0-1.76-.22-2.48-.65s-1.29-1.02-1.72-1.74c-.43-.74-.63-1.59-.63-2.53,0-.94,.2-1.79,.63-2.53s1-1.31,1.72-1.74c.72-.43,1.55-.65,2.48-.65s1.74,.22,2.46,.65,1.29,1.02,1.72,1.74c.43,.74,.63,1.59,.63,2.53s-.2,1.79-.63,2.53-1,1.31-1.72,1.74-1.55,.65-2.46,.65Zm0-1.7c.57,0,1.07-.15,1.52-.43s.8-.67,1.04-1.15c.26-.48,.37-1.04,.35-1.65,.02-.63-.11-1.18-.35-1.66-.26-.48-.59-.87-1.04-1.15s-.94-.41-1.52-.41-1.07,.15-1.52,.43-.8,.67-1.05,1.15-.37,1.04-.35,1.65c-.02,.61,.11,1.16,.35,1.65,.26,.48,.61,.87,1.05,1.15s.96,.43,1.52,.43Zm9.65,1.52l-3.99-9.45h2s2.88,7.08,2.88,7.08l-.33,.17,3.09-7.25h1.9s-4.2,9.45-4.2,9.45h-1.33s-.02,0-.02,0Zm11.37,.18c-.98,0-1.83-.2-2.59-.63-.76-.41-1.33-.98-1.76-1.7s-.65-1.55-.65-2.48c0-.74,.11-1.42,.35-2.03s.57-1.15,1-1.59,.94-.8,1.53-1.04,1.24-.37,1.94-.37c.61,0,1.18,.11,1.72,.35s.98,.55,1.39,.96c.39,.41,.68,.89,.91,1.44,.2,.55,.31,1.16,.3,1.83l-.02,.8h-7.73s-.41-1.48-.41-1.48l6.27,.31v-.43c-.04-.39-.17-.76-.39-1.05-.22-.31-.52-.55-.87-.74s-.72-.28-1.13-.28c-.65,0-1.2,.13-1.65,.37s-.78,.61-1.02,1.07c-.22,.48-.33,1.05-.33,1.76,0,.67,.13,1.24,.41,1.72s.67,.87,1.16,1.13,1.09,.39,1.74,.39c.46,0,.91-.07,1.31-.24,.41-.15,.83-.44,1.31-.85l.94,1.31c-.3,.3-.65,.54-1.05,.76s-.85,.39-1.31,.52-.92,.18-1.37,.18h-.02Z"/>
        <path class="cls-1" d="M39.31,32.38v-12.61s7.95,0,7.95,0v1.87s-5.99,0-5.99,0v8.86h5.99s0,1.87,0,1.87h-7.95v.02Zm.89-5.53v-1.87s6.07,0,6.07,0v1.87s-6.07,0-6.07,0Zm15.99,5.53l-3.07-3.98-.28-.35-3.98-5.14h2.35s3.01,3.92,3.01,3.92l.31,.39,3.92,5.14h-2.27v.02Zm-7.29,0l3.74-4.86,1.09,1.31-2.63,3.55h-2.2Zm5.75-4.57l-1.04-1.29,2.33-3.59h2.2s-3.49,4.88-3.49,4.88Zm5.38,8.54v-13.42s1.87,0,1.87,0v2.16s-.3-.17-.3-.17c.07-.35,.28-.7,.61-1.04s.74-.59,1.24-.81c.48-.2,.98-.31,1.5-.31,.85,0,1.61,.2,2.27,.63,.67,.43,1.18,1,1.57,1.74s.57,1.57,.57,2.51-.18,1.78-.57,2.51c-.37,.74-.91,1.31-1.55,1.74-.67,.43-1.41,.65-2.24,.65-.55,0-1.09-.11-1.61-.33s-.96-.5-1.31-.85c-.35-.35-.57-.7-.67-1.07l.46-.26v6.32s-1.87,0-1.87,0h.02Zm4.68-5.51c.55,0,1.04-.13,1.48-.41,.43-.28,.78-.65,1.04-1.13s.37-1.04,.37-1.65-.13-1.16-.37-1.63c-.24-.48-.59-.85-1.02-1.13-.43-.28-.92-.41-1.5-.41-.57,0-1.05,.13-1.5,.41-.43,.28-.78,.65-1.04,1.13s-.37,1.04-.37,1.65,.13,1.16,.37,1.65c.26,.48,.59,.85,1.04,1.13,.43,.28,.92,.41,1.5,.41v-.02Zm6.68,1.55v-9.45s1.87,0,1.87,0v2.98s-.18-.72-.18-.72c.13-.46,.35-.87,.68-1.24,.31-.37,.68-.67,1.09-.89s.85-.33,1.29-.33c.2,0,.41,.02,.59,.06s.33,.07,.44,.13l-.48,2.02c-.15-.06-.3-.11-.48-.15-.17-.04-.35-.06-.52-.06-.33,0-.63,.06-.92,.18s-.55,.3-.78,.52-.41,.48-.54,.78-.2,.61-.2,.96v5.21s-1.87,0-1.87,0Zm11.28,.18c-.98,0-1.83-.2-2.59-.63-.76-.41-1.33-.98-1.76-1.7s-.65-1.55-.65-2.48c0-.74,.11-1.42,.35-2.03s.57-1.15,1-1.59c.43-.44,.94-.8,1.53-1.04s1.24-.37,1.94-.37c.61,0,1.18,.11,1.72,.35,.54,.24,.98,.55,1.39,.96,.39,.41,.68,.89,.91,1.44,.2,.55,.31,1.16,.3,1.83l-.02,.8h-7.73s-.41-1.48-.41-1.48h6.55s-.28,.31-.28,.31v-.43c-.04-.39-.17-.76-.39-1.05-.22-.31-.52-.55-.87-.74s-.72-.28-1.13-.28c-.65,0-1.2,.13-1.65,.37s-.78,.61-1.02,1.07c-.22,.48-.33,1.05-.33,1.76,0,.67,.13,1.24,.41,1.72s.67,.87,1.16,1.13,1.09,.39,1.74,.39c.46,0,.91-.07,1.31-.24,.41-.15,.83-.44,1.31-.85l.94,1.31c-.3,.3-.65,.54-1.05,.76s-.85,.39-1.31,.52-.92,.18-1.37,.18h-.02Zm9.3,0c-.8,0-1.5-.13-2.14-.41-.63-.28-1.16-.68-1.59-1.22l1.26-1.07c.35,.43,.76,.72,1.18,.91s.91,.28,1.44,.28c.22,0,.43-.02,.61-.07s.35-.13,.48-.24,.24-.24,.31-.39,.11-.31,.11-.5c0-.31-.11-.57-.35-.76-.11-.09-.31-.18-.57-.28-.26-.11-.59-.2-1-.31-.7-.18-1.28-.39-1.72-.61s-.8-.48-1.04-.78c-.18-.22-.31-.48-.39-.74-.09-.28-.13-.57-.13-.89,0-.54,.15-1,.44-1.41s.7-.72,1.22-.96,1.09-.35,1.72-.35c.44,0,.89,.06,1.33,.18,.44,.11,.85,.3,1.22,.52s.68,.5,.94,.81l-1.05,1.16c-.22-.22-.48-.43-.74-.61-.28-.17-.54-.31-.81-.41s-.54-.15-.76-.15c-.26,0-.48,.02-.68,.07s-.37,.11-.52,.22c-.13,.09-.24,.22-.31,.35-.07,.15-.11,.31-.11,.48,.02,.15,.06,.3,.11,.44,.07,.13,.17,.26,.28,.35,.13,.09,.33,.2,.59,.31s.59,.2,1.02,.31c.59,.15,1.09,.33,1.48,.52s.7,.41,.92,.65c.24,.22,.41,.5,.5,.8s.15,.63,.15,1.02c0,.54-.15,1.02-.46,1.44s-.72,.76-1.24,1-1.09,.35-1.74,.35l.04-.04Zm8.64,0c-.8,0-1.5-.13-2.14-.41-.63-.28-1.16-.68-1.59-1.22l1.26-1.07c.35,.43,.76,.72,1.18,.91s.91,.28,1.44,.28c.22,0,.43-.02,.61-.07s.35-.13,.48-.24,.24-.24,.31-.39,.11-.31,.11-.5c0-.31-.11-.57-.35-.76-.11-.09-.31-.18-.57-.28-.26-.11-.59-.2-1-.31-.7-.18-1.28-.39-1.72-.61s-.8-.48-1.04-.78c-.18-.22-.31-.48-.39-.74-.09-.28-.13-.57-.13-.89,0-.54,.15-1,.44-1.41s.7-.72,1.22-.96,1.09-.35,1.72-.35c.44,0,.89,.06,1.33,.18,.44,.11,.85,.3,1.22,.52s.68,.5,.94,.81l-1.05,1.16c-.22-.22-.48-.43-.74-.61-.28-.17-.54-.31-.81-.41s-.54-.15-.76-.15c-.26,0-.48,.02-.68,.07s-.37,.11-.52,.22c-.13,.09-.24,.22-.31,.35-.07,.15-.11,.31-.11,.48,.02,.15,.06,.3,.11,.44,.07,.13,.17,.26,.28,.35,.13,.09,.33,.2,.59,.31s.59,.2,1.02,.31c.59,.15,1.09,.33,1.48,.52s.7,.41,.92,.65c.24,.22,.41,.5,.5,.8s.15,.63,.15,1.02c0,.54-.15,1.02-.46,1.44s-.72,.76-1.24,1-1.09,.35-1.74,.35l.04-.04Z"/>
      </g>
    </g>
  </g>
</svg>