<?xml version="1.0" encoding="UTF-8"?>
<svg id="Layer_2" data-name="Layer 2" xmlns="http://www.w3.org/2000/svg" viewBox="0 0 71.71 49.55">
  <defs>
    <style>
      .cls-1, .cls-2 {
        fill: #e6e6e6;
      }

      .cls-2 {
        fill-rule: evenodd;
      }
    </style>
  </defs>
  <g id="Layer_1-2" data-name="Layer 1">
    <g id="Layer_1-3" data-name="Layer_1">
      <g id="_1974528878000" data-name=" 1974528878000">
        <path class="cls-1" d="M0,40.93v-6.18s.74,0,.74,0l2.76,4.68h-.4s2.76-4.68,2.76-4.68h.74s0,6.18,0,6.18h-.85s0-4.86,0-4.86h.22s-2.43,4.12-2.43,4.12h-.4s-2.47-4.12-2.47-4.12h.22s0,4.86,0,4.86H.04s-.04,0-.04,0Zm11.74,0v-6.18s.88,0,.88,0v6.18s-.88,0-.88,0Zm6.04,0v-6.18s.88,0,.88,0v5.41h3.35s0,.77,0,.77h-4.23Zm8.54,0v-6.18s2.61,0,2.61,0c.66,0,1.25,.15,1.73,.4,.52,.26,.88,.63,1.18,1.1s.4,.99,.4,1.62-.15,1.14-.4,1.62c-.29,.48-.66,.85-1.18,1.1s-1.1,.4-1.73,.4h-2.61s0-.07,0-.07Zm.88-.77h1.66c.52,0,.96-.11,1.33-.29s.66-.48,.88-.81c.22-.37,.29-.77,.29-1.21,0-.48-.11-.88-.29-1.21-.22-.33-.52-.63-.88-.81s-.81-.29-1.33-.29h-1.66v4.64Zm12.88-2.5h3.2s0,.77,0,.77h-3.2s0-.77,0-.77Zm.07,3.28h-.88s0-6.18,0-6.18h4.38s0,.77,0,.77h-3.5v5.41Zm8.02,0v-6.18s.88,0,.88,0v5.41h3.35s0,.77,0,.77h-4.23Zm11.01,.07c-.81,0-1.44-.22-1.91-.7-.48-.48-.7-1.14-.7-2.06v-3.53s.88,0,.88,0v3.5c0,.7,.15,1.18,.44,1.51,.29,.33,.74,.48,1.29,.48,.55,0,.99-.15,1.29-.48s.44-.81,.44-1.51v-3.5s.85,0,.85,0v3.53c0,.88-.22,1.58-.7,2.06s-1.1,.7-1.91,.7h.04Zm6.85-.07l2.58-3.5v.7s-2.43-3.35-2.43-3.35h.99s1.91,2.65,1.91,2.65h-.4s1.91-2.65,1.91-2.65h.96s-2.43,3.31-2.43,3.31v-.63s2.58,3.53,2.58,3.53h-1.03s-2.06-2.83-2.06-2.83h.4s-2.02,2.83-2.02,2.83h-1.03s.07-.07,.07-.07Z"/>
        <path class="cls-1" d="M12.41,49.51v-3.09s1.21,0,1.21,0c.26,0,.52,.04,.7,.11s.33,.22,.44,.37,.15,.37,.15,.59-.04,.4-.15,.59c-.11,.15-.26,.29-.44,.37s-.4,.15-.7,.15h-.96s.18-.22,.18-.22v1.14s-.44,0-.44,0Zm.44-1.1l-.18-.22h.96c.29,0,.52-.07,.63-.18,.15-.11,.22-.29,.22-.52s-.07-.4-.22-.52-.37-.18-.63-.18h-.96s.18-.22,.18-.22v1.84Zm4.79,1.1v-3.09s1.21,0,1.21,0c.26,0,.52,.04,.7,.11s.33,.22,.44,.37,.15,.37,.15,.59-.04,.4-.15,.59c-.11,.15-.26,.29-.44,.37s-.4,.11-.7,.11h-.96s.18-.22,.18-.22v1.14s-.44,0-.44,0v.04Zm2.06,0l-.77-1.14h.48s.81,1.14,.81,1.14h-.48s-.04,0-.04,0Zm-1.62-1.1l-.18-.22h.96c.29,0,.52-.07,.63-.18,.15-.11,.22-.29,.22-.52s-.07-.4-.22-.52-.37-.18-.63-.18h-.96s.18-.22,.18-.22v1.84Zm6.26,1.14c-.22,0-.44-.04-.66-.11-.18-.07-.37-.18-.52-.33s-.26-.29-.33-.52c-.07-.18-.11-.4-.11-.63s.04-.44,.11-.63,.18-.37,.33-.52,.33-.26,.52-.33,.4-.11,.66-.11c.22,0,.44,.04,.66,.11,.18,.07,.37,.18,.52,.33s.26,.29,.33,.52c.07,.18,.11,.4,.11,.63s-.04,.44-.11,.63-.18,.37-.33,.52-.33,.26-.52,.33-.4,.11-.66,.11Zm0-.4c.18,0,.33-.04,.48-.07,.15-.07,.26-.15,.37-.26s.18-.22,.26-.37,.07-.29,.07-.48-.04-.33-.07-.48c-.07-.15-.15-.26-.26-.37s-.22-.18-.37-.26-.29-.07-.48-.07-.33,.04-.48,.07c-.15,.07-.26,.15-.37,.26s-.18,.22-.26,.37-.07,.29-.07,.48,.04,.33,.07,.48c.07,.15,.15,.26,.26,.37s.22,.18,.37,.26,.29,.07,.48,.07Zm4.38,.37v-3.09s1.21,0,1.21,0c.26,0,.52,.04,.7,.11s.33,.22,.44,.37,.15,.37,.15,.59-.04,.4-.15,.59c-.11,.15-.26,.29-.44,.37s-.4,.15-.7,.15h-.96s.18-.22,.18-.22v1.14s-.44,0-.44,0Zm.44-1.1l-.18-.22h.96c.29,0,.52-.07,.63-.18,.15-.11,.22-.29,.22-.52s-.07-.4-.22-.52-.37-.18-.63-.18h-.96s.18-.22,.18-.22v1.84Zm5.19-.66h1.58s0,.37,0,.37h-1.58s0-.37,0-.37Zm.04,1.36h1.8s0,.37,0,.37h-2.25s0-3.09,0-3.09h2.17s0,.37,0,.37h-1.73v2.32s0,.04,0,.04Zm4.6,.37v-3.09s1.21,0,1.21,0c.26,0,.52,.04,.7,.11s.33,.22,.44,.37,.15,.37,.15,.59-.04,.4-.15,.59c-.11,.15-.26,.29-.44,.37s-.4,.11-.7,.11h-.96s.18-.22,.18-.22v1.14s-.44,0-.44,0v.04Zm2.06,0l-.77-1.14h.48s.81,1.14,.81,1.14h-.48s-.04,0-.04,0Zm-1.62-1.1l-.18-.22h.96c.29,0,.52-.07,.63-.18,.15-.11,.22-.29,.22-.52s-.07-.4-.22-.52-.37-.18-.63-.18h-.96s.18-.22,.18-.22v1.84Zm5.41,1.1v-2.72h-1.07s0-.37,0-.37h2.58s0,.37,0,.37h-1.07v2.72s-.44,0-.44,0Zm4.05,0v-3.09s.44,0,.44,0v3.09s-.44,0-.44,0Zm3.87-1.77h1.58s0,.37,0,.37h-1.58s0-.37,0-.37Zm.04,1.36h1.8s0,.37,0,.37h-2.25s0-3.09,0-3.09h2.17s0,.37,0,.37h-1.73v2.32s0,.04,0,.04Zm5.48,.4c-.22,0-.48-.04-.66-.11-.22-.07-.37-.18-.52-.29l.15-.33c.11,.11,.26,.18,.44,.26s.37,.11,.55,.11,.33-.04,.44-.07,.18-.11,.26-.18c.04-.07,.07-.15,.07-.26s-.04-.18-.11-.26-.15-.11-.26-.15-.22-.07-.37-.11-.26-.07-.4-.11-.26-.07-.37-.15-.18-.15-.26-.26-.11-.26-.11-.4,.04-.29,.11-.44,.22-.26,.4-.33,.4-.11,.66-.11c.18,0,.37,.04,.55,.07s.33,.11,.44,.22l-.15,.37c-.15-.07-.26-.15-.4-.18s-.29-.07-.44-.07c-.18,0-.33,.04-.44,.07s-.18,.11-.26,.18c-.04,.07-.07,.15-.07,.26s.04,.18,.11,.26,.15,.11,.26,.15,.22,.07,.37,.11,.26,.07,.4,.11,.26,.07,.37,.15,.18,.15,.26,.26,.11,.22,.11,.4c0,.15-.04,.29-.11,.44s-.22,.26-.4,.33-.4,.11-.66,.11l.04-.04Z"/>
        <polygon class="cls-2" points="27.98 4.42 33.68 10.16 34.31 9.53 43.84 0 53.41 9.53 62.95 19.1 57.2 24.88 53.41 21.09 43.84 11.52 39.46 15.94 47.08 23.52 41.3 29.3 37.51 25.51 27.94 16.01 18.41 25.51 14.65 29.3 8.87 23.52 18.41 13.99 27.98 4.42"/>
      </g>
    </g>
  </g>
</svg>