<?xml version="1.0" encoding="UTF-8"?>
<svg id="Layer_2" data-name="Layer 2" xmlns="http://www.w3.org/2000/svg" xmlns:xlink="http://www.w3.org/1999/xlink" viewBox="0 0 115.42 33.87">
  <defs>
    <style>
      .cls-1 {
        clip-path: url(#clippath-1);
      }

      .cls-2, .cls-3 {
        fill: #e6e6e6;
      }

      .cls-3 {
        fill-rule: evenodd;
      }

      .cls-4 {
        clip-path: url(#clippath);
      }
    </style>
    <clipPath id="clippath">
      <polygon class="cls-2" points="14.67 0 23.47 8.79 13.92 18.34 19.8 24.22 14.67 29.35 0 14.67 14.67 0"/>
    </clipPath>
    <clipPath id="clippath-1">
      <polygon class="cls-2" points="33.77 4.52 42.57 13.31 33.02 22.86 38.9 28.74 33.77 33.87 19.1 19.19 33.77 4.52"/>
    </clipPath>
  </defs>
  <g id="Layer_1-2" data-name="Layer 1">
    <g id="Layer_1-3" data-name="Layer_1">
      <g id="_1974195783008" data-name=" 1974195783008">
        <polygon class="cls-3" points="14.67 0 23.44 8.79 13.89 18.34 19.8 24.22 14.67 29.35 0 14.67 14.67 0"/>
        <g>
          <polygon class="cls-2" points="14.67 0 23.47 8.79 13.92 18.34 19.8 24.22 14.67 29.35 0 14.67 14.67 0"/>
          <g class="cls-4">
            <polygon id="_1" data-name="1" class="cls-3" points="-4.46 4.31 34.5 22.83 -5.25 22.65 .67 28.53 -4.46 33.65 -19.13 18.98 -4.46 4.31"/>
          </g>
        </g>
        <polygon class="cls-2" points="14.67 0 23.44 8.79 13.89 18.34 19.8 24.22 14.67 29.35 0 14.67 14.67 0"/>
        <polygon class="cls-3" points="33.77 4.52 42.54 13.31 32.99 22.86 38.87 28.74 33.77 33.87 19.1 19.19 33.77 4.52"/>
        <g>
          <polygon class="cls-2" points="33.77 4.52 42.57 13.31 33.02 22.86 38.9 28.74 33.77 33.87 19.1 19.19 33.77 4.52"/>
          <g class="cls-1">
            <polygon id="_1-2" data-name="1" class="cls-3" points="10.16 6.73 49.12 25.25 9.37 25.07 15.25 30.99 10.16 36.08 -4.52 21.4 10.16 6.73"/>
          </g>
        </g>
        <polygon class="cls-2" points="33.77 4.52 42.54 13.31 32.99 22.86 38.87 28.74 33.77 33.87 19.1 19.19 33.77 4.52"/>
        <g>
          <path class="cls-2" d="M49.02,16.43c-1.27,0-2.3-.27-3.09-.85s-1.27-1.36-1.46-2.4l2.33-.36c.12,.52,.39,.91,.79,1.18,.42,.3,.94,.42,1.55,.42,.55,0,.97-.12,1.27-.33s.45-.52,.45-.88c0-.24-.06-.42-.15-.58-.12-.15-.36-.27-.73-.42-.36-.12-.94-.3-1.73-.52-.85-.21-1.55-.49-2.06-.73-.52-.27-.88-.58-1.09-.94s-.33-.79-.33-1.3c0-.64,.18-1.18,.52-1.67,.33-.49,.79-.85,1.39-1.09s1.3-.39,2.12-.39,1.52,.12,2.12,.36,1.12,.61,1.49,1.06c.39,.45,.61,1,.7,1.61l-2.33,.42c-.06-.42-.24-.79-.58-1.03s-.79-.39-1.36-.42c-.55-.03-.97,.06-1.3,.24s-.49,.45-.49,.82c0,.18,.06,.36,.21,.52,.12,.15,.39,.27,.79,.42s1,.3,1.79,.52c.82,.21,1.46,.45,1.97,.73,.49,.27,.85,.58,1.06,.97,.21,.36,.33,.82,.33,1.36,0,1.03-.36,1.85-1.12,2.43s-1.79,.88-3.09,.88l.03-.03Zm6.64-.27l-3.12-10.25,2.24,.03,2,6.58,2.03-6.58h1.91s2.03,6.58,2.03,6.58l2-6.58h2.24s-3.12,10.25-3.12,10.25h-1.79s-2.33-7.03-2.33-7.03l-2.3,7.03h-1.79s0-.03,0-.03Zm11.73-11.79V2.27s2.27,0,2.27,0v2.09s-2.27,0-2.27,0Zm0,11.79V5.91s2.27,0,2.27,0v10.25s-2.27,0-2.27,0Zm4.55,0V5.76c0-.27,0-.55,.03-.85s.06-.64,.15-.94,.24-.58,.49-.85c.3-.33,.61-.55,.94-.67s.67-.18,1-.21,.61-.03,.85-.03h1.27s0,1.85,0,1.85h-1.18c-.42,0-.76,.12-.97,.33s-.33,.52-.33,.85v10.88s-2.27,0-2.27,0l.03,.03Zm-1.64-8.43v-1.79s6.4,0,6.4,0v1.79s-6.4,0-6.4,0Zm12.43,8.43c-.67,.12-1.33,.18-1.97,.15s-1.24-.12-1.73-.36c-.52-.21-.91-.58-1.15-1.06-.24-.45-.36-.88-.36-1.36,0-.45-.03-.97-.03-1.58V3.06s2.27,0,2.27,0V11.82c0,.42,0,.76,.03,1.09,0,.3,.06,.58,.18,.76,.24,.39,.58,.58,1.09,.64,.49,.03,1.06,.03,1.7-.06v1.91s-.03,0-.03,0Zm-7.12-8.43v-1.79s7.12,0,7.12,0v1.79s-7.12,0-7.12,0Z"/>
          <path class="cls-2" d="M49.99,30.99c-1,0-1.85-.24-2.52-.7-.67-.49-1.18-1.12-1.52-1.94s-.52-1.73-.52-2.76,.18-1.94,.52-2.76,.85-1.46,1.52-1.94,1.49-.7,2.46-.7,1.82,.24,2.52,.7c.7,.49,1.27,1.12,1.64,1.91,.39,.82,.58,1.73,.58,2.76s-.18,1.94-.58,2.76-.94,1.46-1.64,1.94-1.52,.7-2.46,.7v.03Zm-4.94-.27v-13.64s2.3,0,2.3,0v6.46s-.27,0-.27,0v7.19s-2.03,0-2.03,0Zm4.58-1.76c.61,0,1.09-.15,1.46-.45,.39-.3,.67-.7,.85-1.21s.27-1.06,.27-1.7-.09-1.18-.27-1.7-.49-.91-.88-1.21-.91-.45-1.52-.45-1.06,.15-1.42,.42-.64,.67-.82,1.18-.27,1.09-.27,1.76,.09,1.24,.27,1.76,.45,.91,.82,1.18,.88,.42,1.49,.42h.03Zm9.46,2.06c-.76,0-1.39-.12-1.88-.39-.49-.24-.88-.58-1.18-.97s-.52-.82-.64-1.24c-.15-.45-.21-.85-.27-1.24-.03-.39-.06-.73-.06-.97v-5.7s2.3,0,2.3,0v4.94c0,.3,.03,.67,.06,1.06s.15,.79,.3,1.15,.39,.67,.73,.91,.76,.36,1.3,.36c.3,0,.58-.06,.85-.15s.55-.27,.79-.49c.24-.24,.42-.55,.55-.94,.15-.39,.21-.91,.21-1.55l1.36,.58c0,.88-.18,1.67-.52,2.36s-.85,1.27-1.49,1.7c-.67,.42-1.46,.64-2.43,.64v-.06Zm3.33-.3v-3.18h-.27s0-7.06,0-7.06h2.3s0,10.25,0,10.25h-2.03Zm9.19,0c-.67,.12-1.33,.18-1.97,.15-.64-.03-1.24-.12-1.73-.36-.52-.21-.91-.58-1.15-1.06-.24-.45-.36-.88-.36-1.36,0-.45-.03-.97-.03-1.58v-8.88s2.27,0,2.27,0v8.76c0,.42,0,.76,.03,1.09,0,.3,.06,.58,.18,.76,.21,.36,.58,.58,1.09,.64,.49,.03,1.06,.03,1.7-.09v1.91s-.03,.03-.03,.03Zm-7.12-8.43v-1.79s7.12,0,7.12,0v1.79s-7.12,0-7.12,0Zm11.79,8.73c-1.06,0-1.94-.24-2.7-.7-.76-.49-1.3-1.12-1.7-1.94s-.61-1.73-.61-2.76c0-1.06,.21-1.97,.64-2.79,.39-.82,1-1.46,1.73-1.91,.76-.45,1.64-.7,2.67-.7,1.15,0,2.15,.3,2.94,.88,.82,.58,1.33,1.39,1.58,2.4l-2.27,.61c-.18-.55-.49-.97-.88-1.27-.42-.3-.88-.45-1.39-.45-.61,0-1.09,.15-1.46,.42-.39,.27-.67,.67-.85,1.15s-.27,1.06-.27,1.67c0,.97,.21,1.76,.67,2.36,.42,.61,1.09,.91,1.94,.91,.61,0,1.09-.15,1.42-.42,.36-.27,.61-.67,.79-1.21l2.33,.52c-.3,1.03-.88,1.85-1.67,2.4-.79,.55-1.76,.85-2.91,.85Zm12.07-.27v-4.94c0-.33-.03-.67-.06-1.06s-.15-.76-.3-1.12-.39-.67-.73-.88c-.33-.24-.76-.36-1.3-.36-.3,0-.58,.06-.85,.15s-.55,.24-.76,.49c-.24,.24-.42,.55-.55,.94-.15,.39-.21,.91-.21,1.55l-1.36-.58c0-.88,.18-1.67,.52-2.36s.85-1.27,1.49-1.7c.67-.42,1.46-.64,2.43-.64,.76,0,1.39,.12,1.88,.36s.88,.58,1.18,.97,.52,.82,.64,1.24c.15,.45,.24,.85,.27,1.24s.06,.73,.06,.97v5.7s-2.3,0-2.3,0l-.03,.03Zm-7.09,0v-13.64s2.03,0,2.03,0v7.19h.27s0,6.46,0,6.46h-2.3Zm15.04,.27c-1.03,0-1.94-.21-2.73-.67s-1.39-1.06-1.82-1.88c-.42-.79-.67-1.7-.67-2.76,0-1.12,.21-2.09,.64-2.91s1.03-1.46,1.79-1.91,1.64-.7,2.67-.7,1.97,.24,2.7,.73,1.3,1.18,1.64,2.09c.36,.91,.49,1.97,.39,3.18h-2.27s0-.85,0-.85c0-1.12-.21-1.91-.58-2.43-.39-.52-1-.76-1.82-.76-.94,0-1.64,.27-2.09,.88-.45,.58-.7,1.42-.7,2.55,0,1.03,.24,1.85,.7,2.4,.45,.58,1.12,.85,2,.85,.58,0,1.06-.12,1.46-.36s.73-.61,.94-1.09l2.24,.7c-.39,.91-1,1.64-1.82,2.15-.82,.52-1.73,.76-2.7,.76l.03,.03Zm-3.52-4.76v-1.73s7.03,0,7.03,0v1.73s-7.03,0-7.03,0Zm8.79,4.49v-10.25s2.03,0,2.03,0v2.49s-.24-.33-.24-.33c.12-.33,.3-.67,.52-.94s.45-.52,.76-.7c.24-.18,.55-.3,.85-.39s.61-.15,.94-.18,.64,0,.94,.03v2.12c-.3-.09-.64-.12-1.03-.09s-.76,.15-1.06,.33-.58,.39-.76,.67c-.21,.27-.33,.58-.45,.91-.09,.33-.15,.7-.15,1.09v5.21s-2.3,0-2.3,0l-.03,.03Zm9.67,.27c-1.27,0-2.3-.27-3.09-.85s-1.27-1.36-1.46-2.4l2.33-.36c.12,.52,.39,.91,.79,1.18,.42,.3,.94,.42,1.55,.42,.55,0,.97-.12,1.27-.33s.45-.52,.45-.88c0-.24-.06-.42-.15-.58-.12-.15-.36-.27-.73-.42-.36-.12-.94-.3-1.73-.52-.85-.21-1.55-.49-2.06-.73-.52-.27-.88-.58-1.09-.94s-.33-.79-.33-1.3c0-.64,.18-1.18,.52-1.67s.79-.85,1.39-1.09,1.3-.39,2.12-.39c.79,0,1.52,.12,2.12,.36s1.12,.61,1.49,1.06c.39,.45,.61,1,.7,1.61l-2.33,.42c-.06-.42-.24-.79-.58-1.03s-.79-.39-1.36-.42c-.55-.03-.97,.06-1.3,.24s-.49,.45-.49,.82c0,.18,.06,.36,.21,.52,.12,.15,.39,.27,.79,.42s1,.3,1.79,.52c.82,.21,1.46,.45,1.97,.73,.49,.27,.85,.58,1.06,.97,.21,.36,.33,.82,.33,1.36,0,1.03-.36,1.85-1.12,2.43s-1.79,.88-3.09,.88l.03-.03Z"/>
        </g>
      </g>
    </g>
  </g>
</svg>