<?xml version="1.0" encoding="UTF-8"?>
<svg id="Layer_2" data-name="Layer 2" xmlns="http://www.w3.org/2000/svg" viewBox="0 0 98.98 34.85">
  <defs>
    <style>
      .cls-1 {
        fill: #e6e6e6;
      }
    </style>
  </defs>
  <g id="Layer_1-2" data-name="Layer 1">
    <g id="Layer_1-3" data-name="Layer_1">
      <g id="_1974644404544" data-name=" 1974644404544">
        <path class="cls-1" d="M44,5.42h-2.4s-3.29,7.89-3.29,7.89l-3.29-7.89h-2.4s4.53,10.53,4.53,10.53h2.37s4.53-10.53,4.53-10.53h-.03Zm11.97,0h-2.4s-3.29,7.89-3.29,7.89l-3.29-7.89h-2.4s4.53,10.53,4.53,10.53h2.37s4.53-10.53,4.53-10.53h-.03Zm6.38-.21c-3.12,0-5.66,2.23-5.66,5.49,0,3.26,2.54,5.52,5.66,5.52,3.09,0,5.62-2.23,5.62-5.52,0-3.26-2.54-5.49-5.62-5.49Zm0,9.09c-1.85,0-3.5-1.41-3.5-3.6s1.65-3.6,3.5-3.6c1.82,0,3.46,1.41,3.46,3.6s-1.68,3.6-3.46,3.6Z"/>
        <path class="cls-1" d="M38.65,28.5c-2.13,0-3.88-1.54-3.88-3.98,0-2.4,1.75-4.01,3.88-4.01,1.54,0,2.92,.86,3.4,2.47l1.54-.48c-.69-2.13-2.68-3.46-4.97-3.46-2.95,0-5.45,2.2-5.45,5.49,0,3.33,2.5,5.49,5.45,5.49,2.3,0,4.32-1.37,4.94-3.46l-1.47-.41c-.55,1.51-1.92,2.37-3.46,2.37h.03Zm13.55-9.33c-1.92,0-3.36,1.13-4.18,2.68v-2.57h-1.65v10.46h1.65v-4.01c0-2.81,1.41-4.9,4.18-4.9,.21,0,.41,0,.62,.03l.14-1.54c-.31-.07-.48-.07-.75-.07v-.07Zm12.59,.1h-1.82s-3.81,8.33-3.81,8.33l-3.74-8.33h-1.82s4.7,10.29,4.7,10.29l-2.4,5.25h1.82s7.07-15.54,7.07-15.54Zm8.03-.24c-1.78,0-3.26,.75-4.15,2.02v-1.75h-1.61v15.54h1.61v-6.83c.93,1.27,2.37,2.02,4.15,2.02,2.78,0,5.21-2.2,5.21-5.49,0-3.29-2.44-5.49-5.21-5.49v-.03Zm-.24,9.53c-1.95,0-3.91-1.58-3.91-4.05s1.92-4.08,3.91-4.08c2.16,0,3.91,1.58,3.91,4.08,0,2.47-1.75,4.05-3.91,4.05Zm13.99-.72c-.51,.38-1.2,.65-1.78,.65-1.17,0-1.92-.75-1.92-2.13v-5.73s3.74,0,3.74,0v-1.37h-3.74s0-3.74,0-3.74h-1.65v3.74s-2.26,0-2.26,0v1.37h2.26s0,5.83,0,5.83c0,2.3,1.37,3.53,3.46,3.53,.86,0,1.58-.24,2.4-.82l-.51-1.34Zm6.89-8.78c-3.12,0-5.56,2.23-5.56,5.45,0,3.19,2.44,5.49,5.56,5.49,3.09,0,5.52-2.3,5.52-5.49,0-3.19-2.47-5.45-5.52-5.45Zm0,9.5c-2.16,0-3.98-1.65-3.98-4.08,0-2.4,1.82-4.01,3.98-4.01,2.13,0,3.94,1.65,3.94,4.01,0,2.4-1.82,4.08-3.94,4.08Z"/>
        <polygon class="cls-1" points="19.07 23.39 24.21 8.09 21.33 3.29 15.95 18.18 0 15.78 3.22 20.72 19.07 23.39"/>
        <polygon class="cls-1" points="24.49 33.61 29.63 18.32 26.75 13.51 21.37 28.43 5.42 26 8.64 30.94 24.49 33.61"/>
        <polygon class="cls-1" points="5.69 0 21.5 3.22 24.21 8.09 8.61 5.28 3.22 20.72 0 15.78 5.69 0"/>
      </g>
    </g>
  </g>
</svg>