<?xml version="1.0" encoding="UTF-8"?>
<svg id="Layer_2" data-name="Layer 2" xmlns="http://www.w3.org/2000/svg" viewBox="0 0 2473.51 2148.74">
  <defs>
    <style>
      .cls-1 {
        fill: #f1f2f2;
      }
    </style>
  </defs>
  <g id="Layer_1-2" data-name="Layer 1">
    <g>
      <path class="cls-1" d="M4.3,2148.74v-2.48S0,873.78,0,873.78l4.33,3.54,1530.58,1251.19-6.83,.09L4.3,2148.74Zm.95-1264.18l4.25,1259.21,1511.69-19.99L5.25,884.56Z"/>
      <path class="cls-1" d="M480.94,1709.85v-2.48s-4.3-1272.49-4.3-1272.49l4.33,3.54L2011.55,1689.61l-6.83,.09-1523.78,20.15Zm.95-1264.18l4.25,1259.21,1511.69-19.99L481.89,445.67Z"/>
      <path class="cls-1" d="M942.9,1274.97v-2.48S938.6,0,938.6,0l4.33,3.54,1530.58,1251.19-6.83,.09-1523.78,20.15Zm.95-1264.18l4.25,1259.21,1511.69-19.99L943.85,10.78Z"/>
    </g>
  </g>
</svg>